{"title":"Netaji Subhas Chandra Bose: The Forgotten Hero 2005+ EXTRA Video","uid":13308768,"size":1910213311,"categoryP":"video","categoryS":"movies","magnet":"?xt=urn:btih:aa0833dd7a5bb1afabd71ac42dc9e6953207362a&amp;dn=Netaji+Subhas+Chandra+Bose%3A+The+Forgotten+Hero+2005%2B+EXTRA+Video&amp;tr=udp%3A%2F%2Ftracker.leechers-paradise.org%3A6969&amp;tr=udp%3A%2F%2Fzer0day.ch%3A1337&amp;tr=udp%3A%2F%2Fopen.demonii.com%3A1337&amp;tr=udp%3A%2F%2Ftracker.coppersurfer.tk%3A6969&amp;tr=udp%3A%2F%2Fexodus.desync.com%3A6969","seeders":0,"leechers":1,"uploader":"wbsu","files":19,"time":1453758836,"description":"[center][color=red][b][size=200]Netaji Subhas Chandra Bose: The Forgotten Hero 2005 + Extra Videos\r\n[/size][/b][/color][/center]\r\n\r\n[size=100]IMDB: http://www.imdb.com/title/tt0349878/[/size]\r\n\r\n[img]https://i.ytimg.com/vi/-FmXJCvvlCk/maxresdefault.jpg[/img]\r\n\r\n[img]\r\n[/img]\r\n\r\nPlease Seed As possible as long Time\r\n\r\n[size=100]General\r\nComplete name : D:PLGMNetaji Subhas Chandra Bose- The Forgotten Hero.mp4\r\nFormat : MPEG-4\r\nFormat profile : Base Media\r\nCodec ID : isom (isom/iso2/avc1/mp41)\r\nFile size : 988 MiB\r\nDuration : 3h 31mn\r\nOverall bit rate mode : Variable\r\nOverall bit rate : 653 Kbps\r\nEncoded date : UTC 2015-11-11 19:25:50\r\nTagged date : UTC 2015-11-11 19:25:50\r\n\r\nVideo\r\nID : 1\r\nFormat : AVC\r\nFormat/Info : Advanced Video Codec\r\nFormat profile :   \r\nFormat settings, CABAC : Yes\r\nFormat settings, ReFrames : 3 frames\r\nCodec ID : avc1\r\nCodec ID/Info : Advanced Video Coding\r\nDuration : 3h 31mn\r\nBit rate : 524 Kbps\r\nWidth : 656 pixels\r\nHeight : 480 pixels\r\nDisplay aspect ratio : 4:3\r\nFrame rate mode : Constant\r\nFrame rate : 25.000 fps\r\nColor space : YUV\r\nChroma subsampling : 4:2:0\r\nBit depth : 8 bits\r\nScan type : Progressive\r\nBits/(Pixel*Frame) : 0.067\r\nStream size : 793 MiB (80%)\r\nEncoded date : UTC 2015-11-11 19:25:50\r\nTagged date : UTC 2015-11-11 19:25:50\r\n\r\nAudio\r\nID : 2\r\nFormat : AAC\r\nFormat/Info : Advanced Audio Codec\r\nFormat profile : LC\r\nCodec ID : 40\r\nDuration : 3h 31mn\r\nBit rate mode : Variable\r\nBit rate : 126 Kbps\r\nChannel(s) : 2 channels\r\nChannel positions : Front: L R\r\nSampling rate : 44.1 KHz\r\nFrame rate : 43.066 fps (1024 spf)\r\nCompression mode : Lossy\r\nStream size : 190 MiB (19%)\r\nDefault : Yes\r\nAlternate group : 1\r\nEncoded date : UTC 2015-11-11 17:41:50\r\nTagged date : UTC 2015-11-11 17:41:50\r\n[/size]","torrent":{"xt":"urn:btih:aa0833dd7a5bb1afabd71ac42dc9e6953207362a","amp;dn":"Netaji+Subhas+Chandra+Bose%3A+The+Forgotten+Hero+2005%2B+EXTRA+Video","amp;tr":["udp%3A%2F%2Ftracker.leechers-paradise.org%3A6969","udp%3A%2F%2Fzer0day.ch%3A1337","udp%3A%2F%2Fopen.demonii.com%3A1337","udp%3A%2F%2Ftracker.coppersurfer.tk%3A6969","udp%3A%2F%2Fexodus.desync.com%3A6969"],"infoHash":"aa0833dd7a5bb1afabd71ac42dc9e6953207362a","infoHashBuffer":{"type":"Buffer","data":[170,8,51,221,122,91,177,175,171,215,26,196,45,201,230,149,50,7,54,42]},"announce":[],"urlList":[]}}